<?xml version="1.0" ?><svg id="Layer_1" style="enable-background:new 0 0 468 468;" version="1.1" viewBox="0 0 468 468" xml:space="preserve" xmlns="http://www.w3.org/2000/svg" xmlns:xlink="http://www.w3.org/1999/xlink"><g><g><path d="M295.543,436.786c-0.994,0-1.98-0.296-2.823-0.873c-1.362-0.932-2.177-2.477-2.177-4.127V271.487    c0-2.064,1.269-3.917,3.194-4.662l65.862-25.506c24.511-9.493,52.089-6.29,73.772,8.564C455.055,264.739,468,289.301,468,315.585    c0,16.113-4.808,31.661-13.905,44.961c-9.097,13.3-21.843,23.418-36.859,29.261l-119.88,46.64    C296.769,436.674,296.154,436.786,295.543,436.786z M300.542,274.913v149.563l113.067-43.989l0,0    C440.576,369.996,458,344.521,458,315.585c0-23.327-11.037-44.268-30.281-57.451c-19.245-13.185-42.757-15.912-64.509-7.49    L300.542,274.913z" style="fill:#333333;"/><path d="M172.457,436.786c-0.612,0-1.226-0.112-1.813-0.34l-119.88-46.64    c-15.017-5.843-27.763-15.961-36.859-29.261C4.808,347.246,0,331.698,0,315.585c0-26.284,12.945-50.846,34.629-65.701    c21.683-14.855,49.261-18.057,73.772-8.564l65.862,25.506c1.925,0.745,3.194,2.598,3.194,4.662v160.299    c0,1.65-0.815,3.195-2.177,4.127C174.437,436.49,173.451,436.786,172.457,436.786z M79.413,245.834    c-13.726,0-27.243,4.154-39.132,12.3C21.037,271.317,10,292.258,10,315.585c0,28.936,17.424,54.411,44.391,64.901l0,0    l113.067,43.989V274.913l-62.667-24.27C96.476,247.424,87.904,245.834,79.413,245.834z" style="fill:#333333;"/><g><path d="M280.226,211.762l-0.627-1.031c-9.687-15.913-26.969-25.626-45.599-25.626h0     c-18.63,0-35.912,9.712-45.599,25.626l-0.627,1.031c-8.265,13.577-19.812,24.781-33.378,33.065     C118.833,266.544,95.598,302.419,95.598,343c0,66.274,61.965,120,138.402,120s138.402-53.726,138.402-120     c0-40.581-23.235-76.456-58.799-98.173C300.038,236.543,288.491,225.339,280.226,211.762z" style="fill:#E0E0E0;"/><path d="M111.598,351c0-40.582,23.235-76.456,58.799-98.173c13.566-8.284,25.113-19.488,33.378-33.065     l0.627-1.031c9.687-15.914,26.969-25.626,45.599-25.626c5.337,0,10.562,0.801,15.531,2.312     c-9.011-6.596-20.012-10.312-31.531-10.312c-18.63,0-35.912,9.712-45.599,25.626l-0.627,1.031     c-8.265,13.577-19.812,24.781-33.378,33.065C118.833,266.544,95.598,302.419,95.598,343c0,47.324,31.599,88.243,77.497,107.778     C136.014,429.25,111.598,392.599,111.598,351z" style="fill:#C9C9C9;"/><path d="M234,468c-79.072,0-143.402-56.075-143.402-125c0-40.747,22.876-79.042,61.193-102.44     c13.121-8.013,24.087-18.869,31.712-31.397l0.628-1.031c10.522-17.286,29.631-28.025,49.869-28.025s39.347,10.739,49.87,28.026     l0.627,1.029l0,0.001c7.625,12.528,18.591,23.385,31.712,31.397c38.317,23.398,61.193,61.693,61.193,102.44     C377.402,411.925,313.072,468,234,468z M234,190.105c-16.771,0-32.607,8.899-41.328,23.226l-0.628,1.031     c-8.45,13.882-20.567,25.893-35.042,34.732c-35.319,21.566-56.405,56.672-56.405,93.905c0,63.411,59.844,115,133.402,115     s133.402-51.589,133.402-115c0-37.233-21.086-72.339-56.405-93.905c-14.475-8.84-26.592-20.851-35.042-34.733l0,0.001     l-0.627-1.03C266.607,199.005,250.771,190.105,234,190.105z" style="fill:#333333;"/></g><g><g><path d="M276,400.053h-84c-9.941,0-18-8.059-18-18v-84c0-9.941,8.059-18,18-18h84c9.941,0,18,8.059,18,18      v84C294,391.994,285.941,400.053,276,400.053z" style="fill:#FFD766;"/><path d="M276,405.053h-84c-12.682,0-23-10.317-23-23v-84c0-12.683,10.318-23,23-23h84      c12.682,0,23,10.317,23,23v84C299,394.735,288.682,405.053,276,405.053z M192,285.053c-7.168,0-13,5.832-13,13v84      c0,7.168,5.832,13,13,13h84c7.168,0,13-5.832,13-13v-84c0-7.168-5.832-13-13-13H192z" style="fill:#333333;"/></g><g><g><rect height="73.714" style="fill:#F7F7F7;" width="73.714" x="197.143" y="303.196"/><path d="M270.857,381.91h-73.714c-2.761,0-5-2.238-5-5v-73.715c0-2.762,2.239-5,5-5h73.714       c2.761,0,5,2.238,5,5v73.715C275.857,379.672,273.618,381.91,270.857,381.91z M202.143,371.91h63.714v-63.715h-63.714V371.91z" style="fill:#333333;"/></g><path d="M234,381.91c-2.761,0-5-2.238-5-5v-18.857c0-2.762,2.239-5,5-5s5,2.238,5,5v18.857      C239,379.672,236.761,381.91,234,381.91z" style="fill:#333333;"/><path d="M252,381.91c-2.761,0-5-2.238-5-5v-18.857c0-2.762,2.239-5,5-5s5,2.238,5,5v18.857      C257,379.672,254.761,381.91,252,381.91z" style="fill:#333333;"/><path d="M216,381.91c-2.761,0-5-2.238-5-5v-18.857c0-2.762,2.239-5,5-5s5,2.238,5,5v18.857      C221,379.672,218.761,381.91,216,381.91z" style="fill:#333333;"/></g></g></g><g><g><g><g><circle cx="95" cy="95" r="39.801" style="fill:#ED4848;"/><path d="M70.2,95c0-19.416,13.906-35.576,32.3-39.085c-2.43-0.464-4.935-0.716-7.5-0.716       c-21.981,0-39.8,17.819-39.8,39.801s17.819,39.801,39.8,39.801c2.565,0,5.07-0.252,7.5-0.716       C84.106,130.576,70.2,114.416,70.2,95z" style="fill:#CC4040;"/><path d="M95,139.801c-24.703,0-44.8-20.098-44.8-44.801S70.297,50.199,95,50.199S139.8,70.297,139.8,95       S119.703,139.801,95,139.801z M95,60.199c-19.189,0-34.8,15.611-34.8,34.801s15.611,34.801,34.8,34.801S129.8,114.189,129.8,95       S114.189,60.199,95,60.199z" style="fill:#333333;"/></g><circle cx="81.777" cy="87.932" r="10.947" style="fill:#383838;"/><circle cx="96.67" cy="113.953" r="7" style="fill:#383838;"/><circle cx="114.439" cy="92.772" r="5.385" style="fill:#383838;"/></g><g><g><line style="fill:#FFFFFF;" x1="95" x2="95" y1="55.199" y2="34.528"/><path d="M95,60.199c-2.761,0-5-2.238-5-5V34.528c0-2.762,2.239-5,5-5s5,2.238,5,5v20.671       C100,57.961,97.761,60.199,95,60.199z" style="fill:#333333;"/></g><circle cx="95" cy="34.528" r="9.528" style="fill:#383838;"/></g><g><g><line style="fill:#FFFFFF;" x1="66.857" x2="52.24" y1="66.857" y2="52.24"/><path d="M66.857,71.856c-1.28,0-2.559-0.488-3.536-1.464L48.704,55.776       c-1.953-1.953-1.953-5.119,0-7.071c1.952-1.953,5.118-1.952,7.071-0.001L70.393,63.32c1.953,1.953,1.953,5.119,0,7.071       C69.417,71.368,68.137,71.856,66.857,71.856z" style="fill:#333333;"/></g><circle cx="52.24" cy="52.24" r="9.528" style="fill:#383838;"/></g><g><g><line style="fill:#FFFFFF;" x1="55.199" x2="34.528" y1="95" y2="95"/><path d="M55.2,100H34.528c-2.761,0-5-2.238-5-5s2.239-5,5-5H55.2c2.761,0,5,2.238,5,5       S57.961,100,55.2,100z" style="fill:#333333;"/></g><circle cx="34.528" cy="95" r="9.528" style="fill:#383838;"/></g><g><g><line style="fill:#FFFFFF;" x1="66.857" x2="52.24" y1="123.143" y2="137.76"/><path d="M52.24,142.76c-1.28,0-2.559-0.488-3.536-1.465c-1.953-1.952-1.953-5.118,0-7.071l14.617-14.616       c1.954-1.951,5.119-1.951,7.071,0.001s1.953,5.118,0,7.071l-14.617,14.616C54.799,142.271,53.519,142.76,52.24,142.76z" style="fill:#333333;"/></g><circle cx="52.24" cy="137.76" r="9.528" style="fill:#383838;"/></g><g><g><line style="fill:#FFFFFF;" x1="95" x2="95" y1="134.801" y2="155.472"/><path d="M95,160.472c-2.761,0-5-2.238-5-5v-20.671c0-2.762,2.239-5,5-5s5,2.238,5,5v20.671       C100,158.233,97.761,160.472,95,160.472z" style="fill:#333333;"/></g><circle cx="95" cy="155.472" r="9.528" style="fill:#383838;"/></g><g><g><line style="fill:#FFFFFF;" x1="123.143" x2="137.76" y1="123.143" y2="137.76"/><path d="M137.76,142.76c-1.28,0-2.559-0.488-3.536-1.464l-14.617-14.616       c-1.953-1.953-1.953-5.119,0-7.071c1.952-1.953,5.118-1.952,7.071-0.001l14.617,14.616c1.953,1.953,1.953,5.119,0,7.071       C140.32,142.271,139.04,142.76,137.76,142.76z" style="fill:#333333;"/></g><circle cx="137.76" cy="137.76" r="9.528" style="fill:#383838;"/></g><g><g><line style="fill:#FFFFFF;" x1="134.801" x2="155.472" y1="95" y2="95"/><path d="M155.472,100H134.8c-2.761,0-5-2.238-5-5s2.239-5,5-5h20.672c2.761,0,5,2.238,5,5       S158.233,100,155.472,100z" style="fill:#333333;"/></g><circle cx="155.472" cy="95" r="9.528" style="fill:#383838;"/></g><g><g><line style="fill:#FFFFFF;" x1="123.143" x2="137.76" y1="66.857" y2="52.24"/><path d="M123.143,71.856c-1.28,0-2.559-0.488-3.536-1.465c-1.953-1.952-1.953-5.118,0-7.071       l14.617-14.616c1.954-1.951,5.119-1.951,7.071,0.001c1.953,1.952,1.953,5.118,0,7.071l-14.617,14.616       C125.702,71.368,124.422,71.856,123.143,71.856z" style="fill:#333333;"/></g><circle cx="137.76" cy="52.24" r="9.528" style="fill:#383838;"/></g></g><path d="M95,190c-52.383,0-95-42.617-95-95S42.617,0,95,0s95,42.617,95,95S147.383,190,95,190z M95,10    c-46.869,0-85,38.131-85,85s38.131,85,85,85s85-38.131,85-85S141.869,10,95,10z" style="fill:#333333;"/><path d="M158.64,163.64c-1.28,0-2.559-0.488-3.536-1.465L27.825,34.896c-1.953-1.952-1.953-5.118,0-7.07    c1.953-1.953,5.118-1.953,7.071,0l127.279,127.279c1.953,1.952,1.953,5.118,0,7.07C161.199,163.151,159.919,163.64,158.64,163.64z    " style="fill:#333333;"/></g><g><g><g><g><circle cx="373" cy="95" r="39.801" style="fill:#ED4848;"/><path d="M348.2,95c0-19.416,13.906-35.576,32.3-39.085c-2.43-0.464-4.935-0.716-7.5-0.716       c-21.981,0-39.8,17.819-39.8,39.801s17.819,39.801,39.8,39.801c2.565,0,5.07-0.252,7.5-0.716       C362.106,130.576,348.2,114.416,348.2,95z" style="fill:#CC4040;"/><path d="M373,139.801c-24.703,0-44.8-20.098-44.8-44.801s20.097-44.801,44.8-44.801       S417.8,70.297,417.8,95S397.703,139.801,373,139.801z M373,60.199c-19.189,0-34.8,15.611-34.8,34.801       s15.611,34.801,34.8,34.801S407.8,114.189,407.8,95S392.189,60.199,373,60.199z" style="fill:#333333;"/></g><circle cx="359.777" cy="87.932" r="10.947" style="fill:#383838;"/><circle cx="374.67" cy="113.953" r="7" style="fill:#383838;"/><circle cx="392.439" cy="92.772" r="5.385" style="fill:#383838;"/></g><g><g><line style="fill:#FFFFFF;" x1="373" x2="373" y1="55.199" y2="34.528"/><path d="M373,60.199c-2.761,0-5-2.238-5-5V34.528c0-2.762,2.239-5,5-5s5,2.238,5,5v20.671       C378,57.961,375.761,60.199,373,60.199z" style="fill:#333333;"/></g><circle cx="373" cy="34.528" r="9.528" style="fill:#383838;"/></g><g><g><line style="fill:#FFFFFF;" x1="344.857" x2="330.24" y1="66.857" y2="52.24"/><path d="M344.857,71.856c-1.28,0-2.559-0.488-3.536-1.464l-14.617-14.616       c-1.953-1.953-1.953-5.119,0-7.071c1.952-1.953,5.118-1.952,7.071-0.001l14.617,14.616c1.953,1.953,1.953,5.119,0,7.071       C347.417,71.368,346.137,71.856,344.857,71.856z" style="fill:#333333;"/></g><circle cx="330.24" cy="52.24" r="9.528" style="fill:#383838;"/></g><g><g><line style="fill:#FFFFFF;" x1="333.199" x2="312.528" y1="95" y2="95"/><path d="M333.2,100h-20.672c-2.761,0-5-2.238-5-5s2.239-5,5-5H333.2c2.761,0,5,2.238,5,5       S335.961,100,333.2,100z" style="fill:#333333;"/></g><circle cx="312.528" cy="95" r="9.528" style="fill:#383838;"/></g><g><g><line style="fill:#FFFFFF;" x1="344.857" x2="330.24" y1="123.143" y2="137.76"/><path d="M330.24,142.76c-1.28,0-2.559-0.488-3.536-1.465c-1.953-1.952-1.953-5.118,0-7.071       l14.617-14.616c1.954-1.951,5.119-1.951,7.071,0.001c1.953,1.952,1.953,5.118,0,7.071l-14.617,14.616       C332.799,142.271,331.519,142.76,330.24,142.76z" style="fill:#333333;"/></g><circle cx="330.24" cy="137.76" r="9.528" style="fill:#383838;"/></g><g><g><line style="fill:#FFFFFF;" x1="373" x2="373" y1="134.801" y2="155.472"/><path d="M373,160.472c-2.761,0-5-2.238-5-5v-20.671c0-2.762,2.239-5,5-5s5,2.238,5,5v20.671       C378,158.233,375.761,160.472,373,160.472z" style="fill:#333333;"/></g><circle cx="373" cy="155.472" r="9.528" style="fill:#383838;"/></g><g><g><line style="fill:#FFFFFF;" x1="401.143" x2="415.76" y1="123.143" y2="137.76"/><path d="M415.76,142.76c-1.28,0-2.559-0.488-3.536-1.464l-14.617-14.616       c-1.953-1.953-1.953-5.119,0-7.071c1.952-1.953,5.118-1.952,7.071-0.001l14.617,14.616c1.953,1.953,1.953,5.119,0,7.071       C418.32,142.271,417.04,142.76,415.76,142.76z" style="fill:#333333;"/></g><circle cx="415.76" cy="137.76" r="9.528" style="fill:#383838;"/></g><g><g><line style="fill:#FFFFFF;" x1="412.801" x2="433.472" y1="95" y2="95"/><path d="M433.472,100H412.8c-2.761,0-5-2.238-5-5s2.239-5,5-5h20.672c2.761,0,5,2.238,5,5       S436.233,100,433.472,100z" style="fill:#333333;"/></g><circle cx="433.472" cy="95" r="9.528" style="fill:#383838;"/></g><g><g><line style="fill:#FFFFFF;" x1="401.143" x2="415.76" y1="66.857" y2="52.24"/><path d="M401.143,71.856c-1.28,0-2.559-0.488-3.536-1.465c-1.953-1.952-1.953-5.118,0-7.071       l14.617-14.616c1.954-1.951,5.119-1.951,7.071,0.001c1.953,1.952,1.953,5.118,0,7.071l-14.617,14.616       C403.702,71.368,402.422,71.856,401.143,71.856z" style="fill:#333333;"/></g><circle cx="415.76" cy="52.24" r="9.528" style="fill:#383838;"/></g></g><path d="M373,190c-52.383,0-95-42.617-95-95s42.617-95,95-95s95,42.617,95,95S425.383,190,373,190z M373,10    c-46.869,0-85,38.131-85,85s38.131,85,85,85s85-38.131,85-85S419.869,10,373,10z" style="fill:#333333;"/><path d="M436.64,163.64c-1.28,0-2.559-0.488-3.536-1.465L305.825,34.896c-1.953-1.952-1.953-5.118,0-7.07    c1.953-1.953,5.118-1.953,7.071,0l127.279,127.279c1.953,1.952,1.953,5.118,0,7.07C439.199,163.151,437.919,163.64,436.64,163.64z    " style="fill:#333333;"/></g></g><g/><g/><g/><g/><g/><g/><g/><g/><g/><g/><g/><g/><g/><g/><g/></svg>